<?xml version="1.0" standalone="no"?>
<!DOCTYPE svg PUBLIC "-//W3C//DTD SVG 20010904//EN"
 "http://www.w3.org/TR/2001/REC-SVG-20010904/DTD/svg10.dtd">
<svg version="1.0" xmlns="http://www.w3.org/2000/svg"
 width="559.000000pt" height="522.000000pt" viewBox="0 0 559.000000 522.000000"
 preserveAspectRatio="xMidYMid meet">

<g transform="translate(0.000000,522.000000) scale(0.100000,-0.100000)"
fill="#005900" stroke="none">
<path d="M1305 4370 c-276 -30 -502 -196 -620 -454 -67 -147 -65 -99 -65
-1303 0 -1059 1 -1090 20 -1173 65 -269 262 -474 540 -562 l75 -23 1540 0
1540 0 75 23 c135 43 226 97 326 197 104 103 158 190 202 325 l27 85 0 1130
c0 1254 5 1156 -65 1312 -93 205 -279 361 -509 426 l-76 22 -1470 1 c-808 1
-1501 -2 -1540 -6z m2057 -673 c63 -31 137 -100 172 -159 27 -47 599 -1472
623 -1553 20 -66 13 -185 -14 -246 -48 -107 -157 -182 -287 -198 -148 -17
-293 65 -365 207 -17 33 -161 386 -320 784 -194 485 -294 748 -302 792 -13 77
-1 163 32 228 76 149 305 221 461 145z m-966 -38 c73 -36 142 -106 178 -179
55 -109 607 -1511 617 -1565 14 -79 4 -152 -32 -224 -35 -69 -83 -115 -153
-146 -124 -54 -207 -55 -313 -4 -62 30 -148 112 -178 168 -21 41 -595 1480
-611 1531 -20 65 -18 170 5 235 36 101 96 157 217 201 96 35 180 29 270 -17z
m-661 -934 c95 -25 167 -80 207 -159 11 -21 78 -183 149 -359 112 -280 129
-329 129 -378 0 -139 -95 -239 -270 -284 -152 -40 -315 19 -384 139 -13 22
-83 188 -155 367 -117 290 -132 333 -132 388 -2 139 86 234 261 282 82 22 120
23 195 4z"/>
</g>
</svg>
